<?xml version="1.0" encoding="UTF-8" standalone="no"?>
<!DOCTYPE svg PUBLIC "-//W3C//DTD SVG 1.1//EN" "http://www.w3.org/Graphics/SVG/1.1/DTD/svg11.dtd">
<svg width="100%" height="100%" viewBox="0 0 2481 2481" version="1.1" xmlns="http://www.w3.org/2000/svg" xmlns:xlink="http://www.w3.org/1999/xlink" xml:space="preserve" xmlns:serif="http://www.serif.com/" style="fill-rule:evenodd;clip-rule:evenodd;stroke-linejoin:round;stroke-miterlimit:2;">
    <g transform="matrix(1,0,0,1,0,-674.891107)">
        <g transform="matrix(1,0,0,1.037138,0,16.30641)">
            <path d="M2480.315,1232.877L2480.315,2428.627C2480.315,2758.603 2202.467,3026.501 1860.236,3026.501L620.079,3026.501C277.848,3026.501 0,2758.603 0,2428.627L0,1232.877C0,902.901 277.848,635.002 620.079,635.002L1860.236,635.002C2202.467,635.002 2480.315,902.901 2480.315,1232.877Z" style="fill:rgb(93,26,26);"/>
        </g>
        <g transform="matrix(2.78015,0,0,2.809345,-440.60101,669.830746)">
            <path d="M748.987,209.098C878.215,209.098 983.131,314.014 983.131,443.241C983.131,572.469 878.215,677.385 748.987,677.385C619.76,677.385 514.843,572.469 514.843,443.241C514.843,314.014 619.76,209.098 748.987,209.098ZM748.987,235.201C635.586,235.201 543.518,329.484 543.518,445.614C543.518,561.745 635.586,656.027 748.987,656.027C862.389,656.027 954.456,561.745 954.456,445.614C954.456,329.484 862.389,235.201 748.987,235.201Z" style="fill:white;"/>
        </g>
        <g transform="matrix(-1.937903,0,0,3.417822,2059.540429,400.128448)">
            <path d="M738.18,209.343C851.439,214.998 941.811,317.636 941.811,443.241C941.811,568.847 851.439,671.485 738.18,677.14C741.762,677.303 745.365,677.385 748.987,677.385C878.215,677.385 983.131,572.469 983.131,443.241C983.131,314.014 878.215,209.098 748.987,209.098C745.365,209.098 741.762,209.18 738.18,209.343Z" style="fill:white;"/>
        </g>
        <g transform="matrix(2.296746,0,0,2.330945,-134.863771,843.197674)">
            <circle cx="748.987" cy="443.241" r="234.144" style="fill:white;"/>
        </g>
        <g transform="matrix(-1.613019,0,0,3.417822,1892.276213,400.128448)">
            <path d="M748.987,209.098C619.76,209.098 514.843,314.014 514.843,443.241C514.843,572.469 619.76,677.385 748.987,677.385C878.215,677.385 983.131,572.469 983.131,443.241C983.131,314.014 878.215,209.098 748.987,209.098ZM724.18,240.896C740.47,238.577 756.972,238.577 773.262,240.896L774.833,286.105C782.855,287.671 790.743,289.957 798.414,292.939L820.672,254.637C835.853,261.439 850.143,270.363 863.179,281.182L843.642,321.183C849.865,326.879 855.639,333.124 860.904,339.855L897.886,318.723C907.888,332.823 916.139,348.281 922.427,364.7L887.016,388.776C889.773,397.074 891.886,405.606 893.335,414.283L935.13,415.982C937.275,433.603 937.275,451.451 935.13,469.072L893.335,470.771C891.886,479.448 889.773,487.98 887.016,496.278L922.427,520.353C916.139,536.773 907.888,552.231 897.886,566.331L860.904,545.198C855.639,551.93 849.865,558.175 843.642,563.871L863.179,603.871C850.143,614.691 835.853,623.615 820.672,630.417L798.414,592.115C790.743,595.096 782.855,597.383 774.833,598.949L773.262,644.157C756.972,646.477 740.47,646.477 724.18,644.157L722.609,598.949C714.587,597.383 706.699,595.096 699.028,592.115L676.769,630.417C661.589,623.615 647.298,614.691 634.263,603.871L653.8,563.871C647.577,558.175 641.803,551.93 636.537,545.198L599.556,566.331C589.554,552.231 581.303,536.773 575.015,520.353L610.425,496.278C607.669,487.98 605.555,479.448 604.107,470.771L562.311,469.072C560.167,451.451 560.167,433.603 562.311,415.982L604.107,414.283C605.555,405.606 607.669,397.074 610.425,388.776L575.015,364.7C581.303,348.281 589.554,332.823 599.556,318.723L636.537,339.855C641.803,333.124 647.577,326.879 653.8,321.183L634.263,281.182C647.298,270.363 661.589,261.439 676.769,254.637L699.028,292.939C706.699,289.957 714.587,287.671 722.609,286.105L724.18,240.896ZM748.721,399.819C726.929,399.819 709.237,418.956 709.237,442.527C709.237,466.098 726.929,485.235 748.721,485.235C770.513,485.235 788.205,466.098 788.205,442.527C788.205,418.956 770.513,399.819 748.721,399.819Z" style="fill:white;"/>
        </g>
        <g transform="matrix(-1.613019,0,0,3.417822,1892.276213,400.128448)">
            <path d="M748.987,209.098C619.76,209.098 514.843,314.014 514.843,443.241C514.843,572.469 619.76,677.385 748.987,677.385C878.215,677.385 983.131,572.469 983.131,443.241C983.131,314.014 878.215,209.098 748.987,209.098ZM724.18,240.896C740.47,238.577 756.972,238.577 773.262,240.896L774.833,286.105C782.855,287.671 790.743,289.957 798.414,292.939L820.672,254.637C835.853,261.439 850.143,270.363 863.179,281.182L843.642,321.183C849.865,326.879 855.639,333.124 860.904,339.855L897.886,318.723C907.888,332.823 916.139,348.281 922.427,364.7L887.016,388.776C889.773,397.074 891.886,405.606 893.335,414.283L935.13,415.982C937.275,433.603 937.275,451.451 935.13,469.072L893.335,470.771C891.886,479.448 889.773,487.98 887.016,496.278L922.427,520.353C916.139,536.773 907.888,552.231 897.886,566.331L860.904,545.198C855.639,551.93 849.865,558.175 843.642,563.871L863.179,603.871C850.143,614.691 835.853,623.615 820.672,630.417L798.414,592.115C790.743,595.096 782.855,597.383 774.833,598.949L773.262,644.157C756.972,646.477 740.47,646.477 724.18,644.157L722.609,598.949C714.587,597.383 706.699,595.096 699.028,592.115L676.769,630.417C661.589,623.615 647.298,614.691 634.263,603.871L653.8,563.871C647.577,558.175 641.803,551.93 636.537,545.198L599.556,566.331C589.554,552.231 581.303,536.773 575.015,520.353L610.425,496.278C607.669,487.98 605.555,479.448 604.107,470.771L562.311,469.072C560.167,451.451 560.167,433.603 562.311,415.982L604.107,414.283C605.555,405.606 607.669,397.074 610.425,388.776L575.015,364.7C581.303,348.281 589.554,332.823 599.556,318.723L636.537,339.855C641.803,333.124 647.577,326.879 653.8,321.183L634.263,281.182C647.298,270.363 661.589,261.439 676.769,254.637L699.028,292.939C706.699,289.957 714.587,287.671 722.609,286.105L724.18,240.896ZM748.721,399.819C726.929,399.819 709.237,418.956 709.237,442.527C709.237,466.098 726.929,485.235 748.721,485.235C770.513,485.235 788.205,466.098 788.205,442.527C788.205,418.956 770.513,399.819 748.721,399.819Z" style="fill:white;"/>
        </g>
        <g transform="matrix(0.001449,-0.032737,0.028949,0.001639,1594.38716,1863.804172)">
            <path d="M470.182,1066.456C456.359,1093.131 445.136,1135.175 445.136,1180.779C445.136,1226.384 456.359,1268.427 470.182,1295.103C424.105,1295.103 386.697,1243.876 386.697,1180.779C386.697,1117.682 424.105,1066.456 470.182,1066.456Z" style="fill:rgb(204,204,204);"/>
        </g>
        <g transform="matrix(0.028986,0,0,0.032778,1615.622937,1811.643858)">
            <ellipse cx="416.962" cy="1096.022" rx="30.265" ry="33.509" style="fill:rgb(204,204,204);"/>
        </g>
        <g transform="matrix(0.028986,0,0,0.032778,1615.622937,1811.643858)">
            <ellipse cx="516.215" cy="1096.022" rx="25.624" ry="33.509" style="fill:rgb(204,204,204);"/>
        </g>
    </g>
</svg>
